<?xml version="1.0" encoding="utf-8"?>
<!-- Generator: Adobe Illustrator 25.2.1, SVG Export Plug-In . SVG Version: 6.00 Build 0)  -->
<svg version="1.1" id="Layer_1" xmlns="http://www.w3.org/2000/svg" xmlns:xlink="http://www.w3.org/1999/xlink" x="0px" y="0px"
	 viewBox="0 0 819.33 151.06" style="enable-background:new 0 0 819.33 151.06;" xml:space="preserve">
<style type="text/css">
	.st0{fill:#212121;}
	.st1{fill:#0048FE;}
</style>
<path class="st0" d="M73.64,43.13c-22.72,0-34.08,15.99-34.08,32.4c0,16.83,11.36,33.03,33.87,33.03h15.15
	c13.88,0,20.41,10.31,20.41,20.41c0,10.94-6.73,20.62-20.41,20.62H73.64C24.62,149.59,0,113.4,0,76.58
	C0,39.34,25.46,1.47,76.79,1.47h11.78c13.46,0,20.83,10.31,20.83,20.83c0,10.73-7.36,20.83-20.83,20.83H73.64z"/>
<path class="st0" d="M184.94,0c41.86,0,75.74,33.66,75.74,75.53s-33.87,75.53-75.74,75.53c-41.87,0-75.53-33.66-75.53-75.53
	S143.07,0,184.94,0z M185.15,110.24c18.94,0,34.5-14.94,34.5-34.08s-15.57-34.5-34.5-34.5s-34.29,15.36-34.29,34.5
	S166.21,110.24,185.15,110.24z"/>
<path class="st1" d="M438.81,0.84c-10.94,0-19.78,6.73-19.78,19.36v47.97l-38.08-57.02c-1.08-1.65-2.27-3.06-3.52-4.29
	c-3.41-3.74-8.32-5.76-13.64-5.98c-0.07,0-0.14-0.01-0.22-0.01c-0.25-0.01-0.49-0.03-0.74-0.03c-0.05,0-0.11,0.01-0.16,0.01
	c-0.08,0-0.16-0.01-0.23-0.01c-0.84,0-1.68,0.07-2.51,0.18c-9.55,1.1-16.88,7.69-16.88,19.17v47.97l-38.08-57.02
	c-4.84-7.36-11.57-10.31-18.51-10.31c-9.89,0-19.15,7.57-19.15,20.2v110.03c0,12.62,8.83,19.36,19.15,19.36
	c10.94,0,19.78-6.73,19.78-19.36V82.89l38.29,57.02c0.64,0.98,1.32,1.87,2.02,2.71c3.48,5.14,9.39,7.81,15.89,7.81
	c0.06,0,0.11-0.01,0.17-0.01c0.07,0,0.15,0.01,0.22,0.01c0.85,0,1.69-0.08,2.52-0.19c9.55-1.11,16.86-7.69,16.86-19.17V82.89
	l38.29,57.02c4.84,7.36,11.57,10.52,18.31,10.52c9.89,0,19.36-7.57,19.36-20.41V20.2C458.16,7.57,449.12,0.84,438.81,0.84z"/>
<path class="st0" d="M495.41,149.59c-13.46,0-20.2-6.94-20.2-20.62V22.09c0-13.67,6.73-20.62,20.2-20.62h69.43
	c12.84,0,20.41,9.47,20.41,20.62c0,11.15-7.57,20.62-20.41,20.62h-49.02v14.1h40.81c11.78,0,18.73,8.62,18.73,18.72
	s-6.94,18.72-18.73,18.72h-40.81v14.31h49.02c12.84,0,20.41,9.26,20.41,20.41c0,11.15-7.57,20.62-20.41,20.62H495.41z"/>
<path class="st0" d="M664.68,43.13c-22.72,0-34.08,15.99-34.08,32.4c0,16.83,11.36,33.03,33.87,33.03h15.15
	c13.88,0,20.41,10.31,20.41,20.41c0,10.94-6.73,20.62-20.41,20.62h-14.94c-49.02,0-73.64-36.19-73.64-73.01
	c0-37.24,25.46-75.11,76.79-75.11h11.79c13.46,0,20.83,10.31,20.83,20.83c0,10.73-7.36,20.83-20.83,20.83H664.68z"/>
<path class="st0" d="M784.82,130.02c0,13.46-9.47,20.41-20.62,20.41c-10.94,0-20.2-6.94-20.2-20.41V42.71H729.7
	c-12.83,0-20.41-9.47-20.41-20.62c0-11.15,7.57-20.62,20.41-20.62h69.01c12.84,0,20.62,9.47,20.62,20.62
	c0,11.15-7.78,20.62-20.62,20.62h-13.88V130.02z"/>
</svg>
